#!OML:ASF F:\VICON\USERDATA\INSTALL\rory3\rory3.ASF
:FULLY-SPECIFIED
:DEGREES
770
root -0.849794 16.0004 -2.30574 362.347 -39.6963 -354.262
lowerback 20.9792 1.32448 2.291
upperback 7.9949 2.07421 3.26078
thorax -3.07944 0.908628 1.70488
lowerneck -22.36 4.57116 -5.03511
upperneck 27.8735 9.18887 -2.6704
head 12.9955 3.0554 1.39395
rclavicle 1.27222e-014 1.59028e-015
rhumerus -31.8147 24.6387 -89.1473
rradius 79.6016
rwrist 30.3248
rhand -31.0777 9.98112
rfingers 7.12502
rthumb -4.35819 -19.954
lclavicle 1.27222e-014 1.59028e-015
lhumerus -24.238 -21.7106 95.7889
lradius 66.3263
lwrist -12.3712
lhand -28.3694 16.3
lfingers 7.12502
lthumb -1.74264 46.2726
rfemur -53.3736 -5.08886 16.6004
rtibia 56.5734
rfoot -9.00105 -7.72841
rtoes 7.58219
lfemur -63.6268 24.4331 -29.7224
ltibia 99.4095
lfoot -7.40368 -10.2889
ltoes -20.7173
771
root -0.888622 16.0248 -2.27838 362.817 -39.5947 -354.178
lowerback 21.0289 1.21468 2.4379
upperback 7.9288 1.9698 3.32472
thorax -3.17093 0.858101 1.71266
lowerneck -22.477 4.65666 -4.96708
upperneck 27.8998 9.32225 -2.74736
head 13.0372 3.10598 1.3808
rclavicle -5.48646e-014 3.97569e-014
rhumerus -31.865 24.6031 -89.3181
rradius 79.7298
rwrist 30.8245
rhand -30.8434 10.2338
rfingers 7.12502
rthumb -4.13188 -19.7058
lclavicle -5.48646e-014 3.97569e-014
lhumerus -24.57 -21.9817 95.8502
lradius 66.4165
lwrist -12.4055
lhand -29.3799 17.0599
lfingers 7.12502
lthumb -2.71863 47.0223
rfemur -53.6688 -4.94685 16.5618
rtibia 56.4257
rfoot -9.27661 -8.1808
rtoes 7.3329
lfemur -63.8879 24.3091 -29.9376
ltibia 99.1806
lfoot -7.58546 -10.2182
ltoes -20.775
772
root -0.930662 16.053 -2.25033 363.42 -39.522 -354.237
lowerback 21.0118 1.10232 2.6152
upperback 7.872 1.867 3.44306
thorax -3.21934 0.80799 1.7623
lowerneck -22.6189 4.72878 -4.97814
upperneck 27.9126 9.45474 -2.78683
head 13.0722 3.15322 1.39504
rclavicle -2.46493e-014 -6.36111e-015
rhumerus -31.9449 24.6492 -89.4422
rradius 79.7236
rwrist 31.6765
rhand -30.9024 10.5361
rfingers 7.12502
rthumb -4.18887 -19.4025
lclavicle -2.46493e-014 -6.36111e-015
lhumerus -24.8722 -22.1172 95.9367
lradius 66.4493
lwrist -12.7783
lhand -28.359 16.2681
lfingers 7.12502
lthumb -1.73265 46.2408
rfemur -53.9848 -4.74338 16.6334
rtibia 56.2151
rfoot -9.3849 -8.59432
rtoes 7.87661
lfemur -64.2044 24.2306 -30.0159
ltibia 98.9347
lfoot -7.67919 -10.2482
ltoes -20.7554
773
root -0.975614 16.0839 -2.22077 363.928 -39.4352 -354.128
lowerback 21.0129 1.01517 2.59219
upperback 7.78378 1.76331 3.58693
thorax -3.31885 0.754809 1.9529
lowerneck -22.7706 4.77686 -5.04636
upperneck 27.9022 9.59448 -2.88998
head 13.1022 3.18915 1.39544
rclavicle 5.40694e-014 -4.29375e-014
rhumerus -32.081 24.6718 -89.4622
rradius 79.5113
rwrist 33.094
rhand -31.2837 10.9672
rfingers 7.12502
rthumb -4.55707 -18.9638
lclavicle 5.40694e-014 -4.29375e-014
lhumerus -25.152 -22.2235 96.1205
lradius 66.3528
lwrist -13.1111
lhand -29.3077 16.2206
lfingers 7.12502
lthumb -2.6489 46.1839
rfemur -54.3055 -4.60707 16.5841
rtibia 55.9619
rfoot -9.37744 -8.97021
rtoes 8.2584
lfemur -64.4643 24.0885 -30.2233
ltibia 98.6487
lfoot -7.74389 -10.2463
ltoes -21.0707
774
root -1.0204 16.1183 -2.18424 364.368 -39.4613 -353.93
lowerback 20.9695 0.964192 2.61292
upperback 7.71617 1.70658 3.62623
thorax -3.36922 0.727171 1.99639
lowerneck -22.9185 4.88916 -4.85525
upperneck 27.9243 9.79451 -3.18672
head 13.1721 3.24869 1.29185
rclavicle -5.56597e-014 7.31528e-014
rhumerus -32.1694 24.4987 -89.554
rradius 79.4962
rwrist 34.4853
rhand -31.2535 11.0694
rfingers 7.12502
rthumb -4.52792 -18.8622
lclavicle -5.56597e-014 7.31528e-014
lhumerus -25.3631 -22.549 96.2173
lradius 66.1983
lwrist -13.0133
lhand -27.8464 15.0186
lfingers 7.12502
lthumb -1.23752 44.9948
rfemur -54.586 -4.43214 16.4331
rtibia 55.6692
rfoot -9.38461 -9.39233
rtoes 7.54289
lfemur -64.6274 24.0153 -30.5115
ltibia 98.3237
lfoot -7.90842 -10.2781
ltoes -21.0632
775
root -1.06604 16.1472 -2.15826 364.866 -39.3359 -353.75
lowerback 21.0002 0.8647 2.53335
upperback 7.59207 1.57847 3.71508
thorax -3.52138 0.662879 2.16601
lowerneck -23.0496 5.00527 -4.77426
upperneck 28.0017 9.98584 -3.30605
head 13.2429 3.31546 1.27252
rclavicle -1.59028e-014 -4.92986e-014
rhumerus -32.2247 24.3077 -89.6832
rradius 79.6777
rwrist 35.6515
rhand -30.8188 11.0486
rfingers 7.12502
rthumb -4.10821 -18.8916
lclavicle -1.59028e-014 -4.92986e-014
lhumerus -25.6276 -22.7351 96.3322
lradius 66.053
lwrist -12.9808
lhand -29.113 15.4936
lfingers 7.12502
lthumb -2.46089 45.4591
rfemur -54.9331 -4.37887 16.3186
rtibia 55.415
rfoot -9.43189 -9.83633
rtoes 7.04649
lfemur -64.9203 23.8537 -30.7709
ltibia 98.0212
lfoot -8.01139 -10.4857
ltoes -20.5937
